<mxfile host="app.diagrams.net" modified="2020-10-14T14:56:12.519Z" agent="5.0 (Windows NT 10.0; Win64; x64) AppleWebKit/537.36 (KHTML, like Gecko) Chrome/86.0.4240.75 Safari/537.36" etag="6s9ptWQ1kmqlwxK2q564" version="13.8.0" type="github">
  <diagram id="ORWmDwNx3g8ZtDcgE-eq" name="Page-1">
    <mxGraphModel dx="1038" dy="1717" grid="1" gridSize="10" guides="1" tooltips="1" connect="1" arrows="1" fold="1" page="1" pageScale="1" pageWidth="850" pageHeight="1100" math="0" shadow="0">
      <root>
        <mxCell id="0" />
        <mxCell id="1" parent="0" />
        <mxCell id="_N2qR0gE1ZygfNwfR7FL-29" value="" style="whiteSpace=wrap;html=1;aspect=fixed;fillColor=#d5e8d4;strokeColor=#82b366;" vertex="1" parent="1">
          <mxGeometry x="290" y="-25" width="530" height="530" as="geometry" />
        </mxCell>
        <mxCell id="_N2qR0gE1ZygfNwfR7FL-1" value="&lt;font style=&quot;font-size: 15px&quot;&gt;Passenger&lt;/font&gt;" style="shape=umlActor;verticalLabelPosition=bottom;verticalAlign=top;html=1;" vertex="1" parent="1">
          <mxGeometry x="150" y="170" width="50" height="100" as="geometry" />
        </mxCell>
        <mxCell id="_N2qR0gE1ZygfNwfR7FL-4" value="&lt;font style=&quot;font-size: 15px&quot;&gt;Tour Guide&lt;/font&gt;" style="shape=umlActor;verticalLabelPosition=bottom;verticalAlign=top;html=1;" vertex="1" parent="1">
          <mxGeometry x="220" y="380" width="30" height="60" as="geometry" />
        </mxCell>
        <mxCell id="_N2qR0gE1ZygfNwfR7FL-5" value="&lt;font style=&quot;font-size: 15px&quot;&gt;High class passenger&lt;/font&gt;" style="shape=umlActor;verticalLabelPosition=bottom;verticalAlign=top;html=1;" vertex="1" parent="1">
          <mxGeometry x="80" y="380" width="30" height="60" as="geometry" />
        </mxCell>
        <mxCell id="_N2qR0gE1ZygfNwfR7FL-7" value="" style="endArrow=open;endFill=1;endSize=12;html=1;" edge="1" parent="1">
          <mxGeometry width="160" relative="1" as="geometry">
            <mxPoint x="100" y="370" as="sourcePoint" />
            <mxPoint x="150" y="300" as="targetPoint" />
          </mxGeometry>
        </mxCell>
        <mxCell id="_N2qR0gE1ZygfNwfR7FL-8" value="" style="endArrow=open;endFill=1;endSize=12;html=1;" edge="1" parent="1">
          <mxGeometry width="160" relative="1" as="geometry">
            <mxPoint x="240" y="370" as="sourcePoint" />
            <mxPoint x="200" y="300" as="targetPoint" />
          </mxGeometry>
        </mxCell>
        <mxCell id="_N2qR0gE1ZygfNwfR7FL-9" value="&lt;font style=&quot;font-size: 15px&quot;&gt;Individual Check-in&lt;/font&gt;" style="ellipse;whiteSpace=wrap;html=1;" vertex="1" parent="1">
          <mxGeometry x="380" y="230" width="140" height="70" as="geometry" />
        </mxCell>
        <mxCell id="_N2qR0gE1ZygfNwfR7FL-10" value="&lt;font style=&quot;font-size: 15px&quot;&gt;Security Screening&lt;/font&gt;" style="ellipse;whiteSpace=wrap;html=1;" vertex="1" parent="1">
          <mxGeometry x="380" y="110" width="140" height="70" as="geometry" />
        </mxCell>
        <mxCell id="_N2qR0gE1ZygfNwfR7FL-11" value="&lt;font style=&quot;font-size: 15px&quot;&gt;Group Check-in&lt;/font&gt;" style="ellipse;whiteSpace=wrap;html=1;" vertex="1" parent="1">
          <mxGeometry x="380" y="400" width="150" height="70" as="geometry" />
        </mxCell>
        <mxCell id="_N2qR0gE1ZygfNwfR7FL-15" value="" style="endArrow=none;html=1;entryX=0;entryY=0.5;entryDx=0;entryDy=0;" edge="1" parent="1" target="_N2qR0gE1ZygfNwfR7FL-11">
          <mxGeometry width="50" height="50" relative="1" as="geometry">
            <mxPoint x="260" y="413" as="sourcePoint" />
            <mxPoint x="350" y="440" as="targetPoint" />
          </mxGeometry>
        </mxCell>
        <mxCell id="_N2qR0gE1ZygfNwfR7FL-16" value="&amp;lt;&amp;lt;include&amp;gt;&amp;gt;" style="edgeStyle=none;html=1;endArrow=open;verticalAlign=bottom;dashed=1;labelBackgroundColor=none;entryX=0.5;entryY=1;entryDx=0;entryDy=0;" edge="1" parent="1" target="_N2qR0gE1ZygfNwfR7FL-9">
          <mxGeometry x="-0.2363" y="29" width="160" relative="1" as="geometry">
            <mxPoint x="450" y="398" as="sourcePoint" />
            <mxPoint x="610" y="350" as="targetPoint" />
            <mxPoint as="offset" />
          </mxGeometry>
        </mxCell>
        <mxCell id="_N2qR0gE1ZygfNwfR7FL-17" value="" style="endArrow=none;html=1;entryX=0;entryY=0.5;entryDx=0;entryDy=0;" edge="1" parent="1" target="_N2qR0gE1ZygfNwfR7FL-10">
          <mxGeometry width="50" height="50" relative="1" as="geometry">
            <mxPoint x="210" y="220" as="sourcePoint" />
            <mxPoint x="340" y="150" as="targetPoint" />
          </mxGeometry>
        </mxCell>
        <mxCell id="_N2qR0gE1ZygfNwfR7FL-18" value="" style="endArrow=none;html=1;entryX=0;entryY=0.5;entryDx=0;entryDy=0;" edge="1" parent="1" target="_N2qR0gE1ZygfNwfR7FL-9">
          <mxGeometry width="50" height="50" relative="1" as="geometry">
            <mxPoint x="210" y="220" as="sourcePoint" />
            <mxPoint x="360" y="220" as="targetPoint" />
          </mxGeometry>
        </mxCell>
        <mxCell id="_N2qR0gE1ZygfNwfR7FL-19" value="&lt;font style=&quot;font-size: 15px&quot;&gt;Baggage scanning&lt;/font&gt;" style="ellipse;whiteSpace=wrap;html=1;" vertex="1" parent="1">
          <mxGeometry x="540" y="20" width="140" height="70" as="geometry" />
        </mxCell>
        <mxCell id="_N2qR0gE1ZygfNwfR7FL-20" value="&amp;lt;&amp;lt;extend&amp;gt;&amp;gt;" style="edgeStyle=none;html=1;endArrow=open;verticalAlign=bottom;dashed=1;labelBackgroundColor=none;exitX=0;exitY=0.714;exitDx=0;exitDy=0;exitPerimeter=0;entryX=0.574;entryY=-0.057;entryDx=0;entryDy=0;entryPerimeter=0;" edge="1" parent="1" source="_N2qR0gE1ZygfNwfR7FL-19" target="_N2qR0gE1ZygfNwfR7FL-10">
          <mxGeometry x="0.3453" y="-16" width="160" relative="1" as="geometry">
            <mxPoint x="500" y="78" as="sourcePoint" />
            <mxPoint x="460" y="100" as="targetPoint" />
            <mxPoint as="offset" />
          </mxGeometry>
        </mxCell>
        <mxCell id="_N2qR0gE1ZygfNwfR7FL-21" value="&lt;font style=&quot;font-size: 15px&quot;&gt;Check-in counter&lt;/font&gt;" style="ellipse;whiteSpace=wrap;html=1;" vertex="1" parent="1">
          <mxGeometry x="635" y="200" width="130" height="80" as="geometry" />
        </mxCell>
        <mxCell id="_N2qR0gE1ZygfNwfR7FL-22" value="&lt;font style=&quot;font-size: 15px&quot;&gt;Boarding pass&lt;/font&gt;" style="ellipse;whiteSpace=wrap;html=1;" vertex="1" parent="1">
          <mxGeometry x="620" y="350" width="160" height="80" as="geometry" />
        </mxCell>
        <mxCell id="_N2qR0gE1ZygfNwfR7FL-23" value="&amp;lt;&amp;lt;extend&amp;gt;&amp;gt;" style="edgeStyle=none;html=1;endArrow=open;verticalAlign=bottom;dashed=1;labelBackgroundColor=none;" edge="1" parent="1">
          <mxGeometry x="-0.1385" y="-30" width="160" relative="1" as="geometry">
            <mxPoint x="700" y="348" as="sourcePoint" />
            <mxPoint x="700" y="283" as="targetPoint" />
            <mxPoint as="offset" />
            <Array as="points">
              <mxPoint x="700" y="320" />
            </Array>
          </mxGeometry>
        </mxCell>
        <mxCell id="_N2qR0gE1ZygfNwfR7FL-25" value="&lt;font style=&quot;font-size: 15px&quot;&gt;Admin&lt;/font&gt;" style="shape=umlActor;verticalLabelPosition=bottom;verticalAlign=top;html=1;" vertex="1" parent="1">
          <mxGeometry x="880" y="210" width="50" height="90" as="geometry" />
        </mxCell>
        <mxCell id="_N2qR0gE1ZygfNwfR7FL-26" value="" style="endArrow=none;html=1;exitX=1;exitY=0.5;exitDx=0;exitDy=0;entryX=0;entryY=0.5;entryDx=0;entryDy=0;" edge="1" parent="1" source="_N2qR0gE1ZygfNwfR7FL-9" target="_N2qR0gE1ZygfNwfR7FL-21">
          <mxGeometry width="50" height="50" relative="1" as="geometry">
            <mxPoint x="550" y="280" as="sourcePoint" />
            <mxPoint x="600" y="230" as="targetPoint" />
          </mxGeometry>
        </mxCell>
        <mxCell id="_N2qR0gE1ZygfNwfR7FL-27" value="" style="endArrow=none;html=1;" edge="1" parent="1">
          <mxGeometry width="50" height="50" relative="1" as="geometry">
            <mxPoint x="752" y="240" as="sourcePoint" />
            <mxPoint x="860" y="240" as="targetPoint" />
          </mxGeometry>
        </mxCell>
        <mxCell id="_N2qR0gE1ZygfNwfR7FL-30" value="&lt;font style=&quot;font-size: 17px&quot;&gt;Airport&lt;/font&gt;" style="text;html=1;strokeColor=none;fillColor=none;align=center;verticalAlign=middle;whiteSpace=wrap;rounded=0;" vertex="1" parent="1">
          <mxGeometry x="510" y="-10" width="40" height="20" as="geometry" />
        </mxCell>
      </root>
    </mxGraphModel>
  </diagram>
</mxfile>
